<svg xmlns="http://www.w3.org/2000/svg" viewBox="290.9 225.3 826.4 317.7"><path fill="#f3f3f8" d="M527.78 234.43C553.61 231.28 576.22 244.11 580.83 270.54C584.53 291.77 579 322.5 577.19 344.5C576.01 358.85 574.42 373.16 573.25 387.5C572.33 398.84 571.24 410.16 570.25 421.5C569.31 432.17 568.29 442.84 567.27 453.5C564.43 483 560.9 513.99 530.67 528.2C525.62 530.58 520.02 532.19 514.5 532.99C506.64 534.13 498.44 534.61 490.53 533.73C464.85 530.9 448.68 518.11 446.13 491.5C444.21 471.5 450.53 447.38 453.71 427.44C460.15 387.11 465.9 346.64 472.67 306.37C477.24 279.18 481.98 249.98 511.09 238.55C516.46 236.44 522.06 235.13 527.78 234.43ZM366.5 237.84C382.17 237.71 397.83 237.84 413.5 237.78C425.68 237.74 439.18 238.04 448.67 246.85C460.33 257.68 459.8 274.99 458.13 289.5C455.82 309.57 451.8 329.66 448.22 349.54C444.43 370.55 440.9 393.5 423.35 407.89C414.65 415.02 403.67 419.09 392.5 419.97C382.97 420.71 372.86 419.07 363.5 420.64C355.77 457.07 348.03 493.51 340.3 529.94C325.83 529.94 311.37 529.94 296.9 529.94C320.1 432.57 343.3 335.21 366.5 237.84ZM605.5 237.95C618.13 237.41 630.86 237.8 643.5 237.8C660.16 237.8 678.04 237.12 690.93 249.57C704.18 262.36 706.34 282.12 706.52 299.54C706.74 321.52 706.27 343.52 706.14 365.5C705.94 399.55 706.96 433.82 705.49 467.84C704.54 489.54 699.07 511.92 678.38 522.89C661.79 531.69 642.65 529.94 624.5 529.96C613.45 529.97 594.21 531.56 584.18 529.5C591.28 432.32 598.39 335.13 605.5 237.95ZM728.52 237.86C739.8 237.86 751.07 237.86 762.34 237.86C766.05 335.22 769.76 432.57 773.46 529.93C758.48 529.93 743.5 529.93 728.52 529.93C728.52 432.57 728.52 335.22 728.52 237.86ZM817.5 237.85C819.92 256.91 820.65 276.35 822.26 295.5C826.19 342.09 829.65 388.82 834.41 435.33C834.85 439.55 835.03 443.79 835.5 448C837.2 463.01 835.03 495.17 858.07 493.5C866.81 492.86 871.3 486.99 871.86 478.5C872.31 471.84 870.94 465.09 870.19 458.5C869.21 450 868.62 441.44 867.51 432.96C861.93 390.62 858.5 347.97 853.72 305.53C852.18 291.9 851.2 278.21 849.64 264.58C848.67 256.11 846.51 246.28 847.5 237.85C858.82 237.85 870.14 237.85 881.46 237.85C883.88 259.12 887.23 280.26 889.86 301.5C896.45 354.57 903.73 407.53 910.77 460.53C914.17 486.16 914.65 518.32 886.22 529.68C880.56 531.95 874.53 533.11 868.48 533.76C838.63 536.96 807.48 524.34 799.27 493.31C796.15 481.49 795.55 469.64 794.73 457.5C793.57 440.18 792.85 422.82 791.68 405.5C789.62 375.19 788.34 344.84 786.71 314.5C785.35 288.96 783.5 263.42 782.78 237.85C794.35 237.85 805.93 237.85 817.5 237.85ZM902.5 237.82C918.17 237.82 933.83 237.82 949.5 237.82C969.83 303.55 990.17 369.28 1010.5 435.01C1005.5 369.28 1000.5 303.56 995.5 237.83C1011.14 237.83 1026.78 237.83 1042.43 237.83C1065.4 335.2 1088.37 432.57 1111.35 529.93C1098.73 529.93 1086.12 529.93 1073.5 529.93C1070.91 521.73 1069.55 513 1067.74 504.58C1064.01 487.3 1060.33 470.02 1056.64 452.74C1046.88 407.04 1036.44 361.26 1028.5 315.21C1027.06 322.25 1029.25 330.36 1029.84 337.5C1031.22 354.16 1032.2 370.86 1033.74 387.5C1035.31 404.47 1036.02 421.51 1037.27 438.5C1039.51 468.96 1042.03 499.43 1043.74 529.92C1032.33 529.92 1020.93 529.92 1009.52 529.92C988.08 458.45 966.65 386.97 945.22 315.5C957.12 386.98 969.03 458.46 980.94 529.93C968.57 529.93 956.19 529.93 943.82 529.93C930.05 432.56 916.27 335.19 902.5 237.82ZM528.63 269.35C511.75 271.41 511.6 298.83 509.95 311.5C504.11 356.42 498.24 401.4 491.57 446.2C490.87 450.94 490.41 455.71 489.74 460.45C488.13 471.83 484.41 490.81 500.5 493.11C523.59 496.41 523.41 469.49 525.47 453.91C531.58 407.59 535.72 361 541.36 314.61C541.72 311.61 541.92 308.59 542.32 305.59C543.95 293.49 549.14 266.84 528.63 269.35ZM394.5 273.09C386.93 309.23 379.35 345.36 371.78 381.5C374.8 382.45 377.72 382.46 380.97 382.5C384.65 382.54 388.56 382.49 392.13 381.56C405.6 378.03 406.84 360.73 409.13 349.53C411.59 337.55 413.67 325.5 416.04 313.5C417.79 304.62 423.82 285.42 418.98 277.55C414.65 270.5 401.34 272.07 394.5 273.09ZM640.5 272.72C636.83 344.97 633.17 417.21 629.5 489.46C639.83 489.61 653.62 491.68 659.58 481.11C665.87 469.98 664.6 442.78 664.89 429.5C665.61 395.83 667.16 362.17 667.86 328.5C668.13 315.74 671.08 294.42 666.7 282.74C662.4 271.24 650.7 272.7 640.5 272.72Z"></path></svg>
