<svg xmlns="http://www.w3.org/2000/svg" viewBox="0 0 1024 1024">
  <defs>
    <linearGradient id="surface" x1="128" y1="96" x2="896" y2="928" gradientUnits="userSpaceOnUse">
      <stop stop-color="#20202a"/>
      <stop offset="1" stop-color="#0e0e12"/>
    </linearGradient>
  </defs>
  <rect x="40" y="40" width="944" height="944" rx="224" fill="url(#surface)"/>
  <rect x="44" y="44" width="936" height="936" rx="220" fill="none" stroke="#343440" stroke-width="8"/>
  <g transform="matrix(2.25 0 0 2.25 -330 -365)" fill="#f3f3f8">
    <path d="M366.5 237.84C382.17 237.71 397.83 237.84 413.5 237.78C425.68 237.74 439.18 238.04 448.67 246.85C460.33 257.68 459.8 274.99 458.13 289.5C455.82 309.57 451.8 329.66 448.22 349.54C444.43 370.55 440.9 393.5 423.35 407.89C414.65 415.02 403.67 419.09 392.5 419.97C382.97 420.71 372.86 419.07 363.5 420.64C355.77 457.07 348.03 493.51 340.3 529.94C325.83 529.94 311.37 529.94 296.9 529.94C320.1 432.57 343.3 335.21 366.5 237.84ZM394.5 273.09C386.93 309.23 379.35 345.36 371.78 381.5C374.8 382.45 377.72 382.46 380.97 382.5C384.65 382.54 388.56 382.49 392.13 381.56C405.6 378.03 406.84 360.73 409.13 349.53C411.59 337.55 413.67 325.5 416.04 313.5C417.79 304.62 423.82 285.42 418.98 277.55C414.65 270.5 401.34 272.07 394.5 273.09Z"/>
  </g>
  <rect x="290" y="858" width="444" height="28" rx="14" fill="#f59e0b"/>
</svg>
